# xmcd
#
# Track frame offsets:
#	150
#	19829
#	38507
#	69208
#	87155
#	110805
#	130098
#	146985
#	160048
#
# Disc length: 2660 seconds
#
# Revision: 0
# Processed by: cddbd v1.5.1PL0 Copyright (c) Steve Scherf et al.
# Submitted via: dBpowerAMP V4.0
#
DISCID=710a6209
DTITLE=Traffic Jam - I Heard It Before
DYEAR=2005
DGENRE=Blues
TTITLE0=how its gonna be
TTITLE1=mr wrong
TTITLE2=jail house blues
TTITLE3=i heard it before
TTITLE4=get back
TTITLE5=soul healer
TTITLE6=front page blues
TTITLE7=mary
TTITLE8=afrikania
EXTD=
EXTT0=
EXTT1=
EXTT2=
EXTT3=
EXTT4=
EXTT5=
EXTT6=
EXTT7=
EXTT8=
PLAYORDER=
